<?xml version="1.0" encoding="UTF-8" standalone="no"?>
<!-- Created with Inkscape (http://www.inkscape.org/) -->

<svg
   version="1.1"
   id="svg108"
   width="360"
   height="360"
   viewBox="0 0 360 360"
   sodipodi:docname="ImprintJES.svg"
   inkscape:version="1.2.2 (b0a8486541, 2022-12-01)"
   xmlns:inkscape="http://www.inkscape.org/namespaces/inkscape"
   xmlns:sodipodi="http://sodipodi.sourceforge.net/DTD/sodipodi-0.dtd"
   xmlns="http://www.w3.org/2000/svg"
   xmlns:svg="http://www.w3.org/2000/svg">
  <defs
     id="defs112" />
  <sodipodi:namedview
     id="namedview110"
     pagecolor="#ffffff"
     bordercolor="#000000"
     borderopacity="0.25"
     inkscape:showpageshadow="2"
     inkscape:pageopacity="0.0"
     inkscape:pagecheckerboard="0"
     inkscape:deskcolor="#d1d1d1"
     showgrid="false"
     inkscape:zoom="1.5359931"
     inkscape:cx="-86.588933"
     inkscape:cy="220.70412"
     inkscape:window-width="1920"
     inkscape:window-height="1043"
     inkscape:window-x="0"
     inkscape:window-y="0"
     inkscape:window-maximized="1"
     inkscape:current-layer="g114" />
  <g
     inkscape:groupmode="layer"
     inkscape:label="Image"
     id="g114">
    <path
       style="fill:#000000"
       d="M 0,180 V 0 H 180 360 V 180 360 H 180 0 Z m 187.41095,132.60165 3.34671,-1.39834 49.87117,-28.70237 49.87117,-28.70236 3.14169,-3.4406 3.14168,-3.4406 1.10832,-4.40151 L 299,238.11436 v -3.97539 -3.9754 L 298.39301,228.58179 297.78602,227 H 292 286.21398 l -0.60699,1.58179 L 285,230.16357 v 5.29577 5.29577 l -1.25,1.02812 -1.25,1.02813 -50.44414,29.09432 L 181.61172,301 H 180.5 179.38828 L 128.94414,271.90568 78.5,242.81136 77.25,241.78323 76,240.75511 v -6.27057 -6.27056 L 74.418213,227.60699 72.836425,227 H 68.618213 64.4 l -1.2,1.2 -1.2,1.2 v 4.35718 4.35718 l 1.108313,4.40151 1.108313,4.40151 3.141687,3.4406 3.141687,3.4406 49.8557,28.69343 49.85571,28.69343 3.14429,1.36814 3.1443,1.36814 3.78212,0.0391 3.78212,0.0391 3.34671,-1.39835 z M 96.6849,211.93339 99.5,210.86678 l 2.38192,-2.18339 2.38192,-2.18339 1.84612,-4 1.84612,-4 0.022,-26.25 L 108,146 H 95.5 83 v 4 4 h 8 8 l -0.04355,18.75 -0.04355,18.75 -0.862563,4.47087 -0.862564,4.47087 -2.649649,2.27913 L 91.888475,205 h -3.22173 -3.221731 l -2.139158,-1.49833 -2.139159,-1.49832 -1.75833,-4.60412 -1.75833,-4.60412 -3.575018,0.59144 -3.575017,0.59144 -1.269052,0.011 -1.269052,0.011 0.660952,2.75 0.660952,2.75 1.760782,3.5 1.760782,3.5 2.347831,2.18993 2.34783,2.18994 2.499488,0.99668 2.499487,0.99668 5.6849,0.0634 5.684901,0.0634 2.815099,-1.06661 z m 182.38696,-0.47423 4.42814,-1.54085 2.17148,-1.80586 2.17147,-1.80586 2.07479,-3.4033 2.07478,-3.40329 0.004,-5.34887 0.004,-5.34887 -1.65629,-3.49037 -1.65628,-3.49037 -3.59372,-2.34874 -3.59371,-2.34875 -11.87323,-3.46302 -11.87323,-3.46303 -1.97677,-1.97677 -1.97677,-1.97677 v -3.64513 -3.64513 l 1.57195,-2.39909 1.57195,-2.3991 5.28348,-1.18239 5.28349,-1.1824 4.17156,1.12329 4.17157,1.12328 2.573,3.05784 2.573,3.05784 v 1.03682 1.03682 l 4.75,-0.70709 4.75,-0.70709 0.30678,-0.29656 0.30677,-0.29657 -2.17419,-4.62541 -2.1742,-4.6254 -2.63258,-1.83153 -2.6331,-1.83154 -3.39922,-1.15295 -3.39923,-1.15295 -7.10077,0.006 -7.10078,0.006 -3.71895,1.03286 -3.71894,1.03285 -3.06697,2.58069 -3.06697,2.58068 -1.46409,2.83123 L 244,157.90153 v 4.90178 4.90177 l 2.2738,3.37409 2.27379,3.37409 3.20173,2.15764 3.20172,2.15764 8.27448,2.1685 8.27448,2.16849 2.79093,1.08593 2.79092,1.08594 2.45908,1.9343 2.45907,1.93431 v 4.49316 4.49316 l -1.08049,2.01892 -1.08049,2.01892 -3.38739,1.41534 -3.38739,1.41534 -6.28212,-0.002 -6.28212,-0.002 -3.43137,-1.74844 -3.43138,-1.74845 -1.96621,-3.84548 -1.96622,-3.84548 -2.97741,0.59548 L 243.75,195 h -1.5 -1.5 l 0.6333,3.16649 0.6333,3.16649 2.54339,3.33456 2.5434,3.33456 3.19183,1.65056 3.19183,1.65056 2.50648,0.76244 2.50647,0.76243 8.07186,0.086 8.07186,0.0859 4.42814,-1.54084 z M 203,208 v -4 H 184.5 166 v -11 -11 h 16 16 v -4 -4 h -16 -16 v -10 -10 h 17.5 17.5 v -4 -4 H 178.5 156 v 33 33 H 179.5 203 Z M 56,178.5 V 171 h -6 -6 v 7.5 7.5 h 6 6 z m 82,0 V 171 h -6 -6 v 7.5 7.5 h 6 6 z m 88,0 V 171 h -6 -6 v 7.5 7.5 h 6 6 z m 93,0 V 171 h -6 -6 v 7.5 7.5 h 6 6 z M 74.8088,129.73038 75.86249,128.46076 76.181245,124.01548 76.5,119.5702 127.42389,90.160098 178.34778,60.75 H 180.5 182.65222 L 233.57611,90.160098 284.5,119.5702 l 0.31875,4.44528 0.31876,4.44528 1.05369,1.26962 1.05369,1.26962 4.62755,-0.0153 4.62756,-0.0153 1.40004,-0.88643 1.40005,-0.88644 -0.56462,-5.47064 -0.56462,-5.47065 -2.06279,-4.04339 -2.06278,-4.04339 -2.77264,-1.91415 L 288.5,106.34013 237.5,76.920066 186.5,47.5 h -6 -6 l -51,29.420066 -51,29.420064 -2.772639,1.91415 -2.77264,1.91415 -2.032575,3.98418 -2.032576,3.98417 -0.581972,4.91385 -0.581972,4.91384 1.259632,1.51777 L 64.244889,131 H 69 73.755111 Z"
       id="path276" />
  </g>
</svg>
